<?xml version="1.0" encoding="UTF-8"?>
<!DOCTYPE svg PUBLIC "-//W3C//DTD SVG 1.1//EN" "http://www.w3.org/Graphics/SVG/1.1/DTD/svg11.dtd">
<!-- Creator: CorelDRAW -->
<svg xmlns="http://www.w3.org/2000/svg" xml:space="preserve" width="2048px" height="2048px" style="shape-rendering:geometricPrecision; text-rendering:geometricPrecision; image-rendering:optimizeQuality; fill-rule:evenodd; clip-rule:evenodd"
viewBox="0 0 2048 2048"
 xmlns:xlink="http://www.w3.org/1999/xlink">
 <defs>
  <style type="text/css">
   <![CDATA[
    .fil1 {fill:none}
    .fil0 {fill:#424242;fill-rule:nonzero}
   ]]>
  </style>
 </defs>
 <g id="Layer_x0020_1">
  <metadata id="CorelCorpID_0Corel-Layer"/>
  <path class="fil0" d="M379.419 1426.25c-104.139,-161.332 -139.918,-348.799 -112.788,-526.636 27.1323,-177.862 117.233,-346.19 264.84,-469.216 147.791,-123.18 329.909,-181.407 510.004,-175.808 180.295,5.60434 358.539,75.013 498.349,207.093l-43.7504 46.5c-128.175,-121.088 -291.388,-184.714 -456.349,-189.842 -165.158,-5.13426 -332.106,48.2067 -467.503,161.056 -135.024,112.538 -217.473,266.704 -242.34,429.717 -24.8729,163.039 7.89095,334.848 103.287,482.635l-53.7496 34.5z"/>
  <polygon class="fil0" points="1546.29,350.714 1572.48,502.194 1577.91,533.613 1546.36,539.07 1403.97,563.692 1393.22,500.692 1504.05,481.526 1483.29,361.465 "/>
  <path class="fil0" d="M1663.67 562.401c109.82,166.98 148.732,361.712 122.093,546.95 -26.6563,185.362 -118.87,361.304 -271.275,490.556 -152.623,129.436 -341.608,191.616 -529.111,187.393 -187.618,-4.22599 -373.696,-74.8713 -520.37,-211.079l43.5 -46.7504c134.867,125.242 305.83,190.198 478.12,194.078 172.403,3.88347 346.205,-53.3185 486.61,-172.393 140.041,-118.766 224.777,-280.453 249.275,-450.805 24.5162,-170.476 -11.2063,-349.551 -112.094,-502.949l53.2512 -35.0008z"/>
  <polygon class="fil0" points="459.824,1692.72 431.175,1535.08 425.489,1503.79 456.924,1498.08 605.097,1471.15 616.348,1533.9 499.61,1555.12 522.573,1681.46 "/>
  <path class="fil0" d="M1407.71 593.898c-68.641,-61.2792 -152.043,-106.367 -244.216,-129.278 41.674,50.4922 79.6725,104.093 111.962,160.916l6.51733 11.4662 12.6768 -3.64134c38.4059,-11.035 76.1256,-24.2811 113.06,-39.463zm-317.299 -142.498c-14.1673,-1.62402 -28.4918,-2.73071 -42.952,-3.31063l0 223.452 17.4225 -0.696851c49.343,-1.97126 98.4414,-7.84725 146.884,-17.4071l23.4095 -4.62048 -12.2929 -20.4496c-37.9949,-63.2008 -83.2111,-122.101 -132.471,-176.967zm-89.8701 -3.31063c-12.3213,0.49252 -24.5433,1.37362 -36.6532,2.62795 -49.5,55.0642 -94.9595,114.2 -133.117,177.682l-12.3236 20.504 23.4792 4.57323c46.5508,9.06851 93.6981,14.8524 141.076,17.0752l17.5394 0.820867 0 -223.283zm-108.911 14.8075c-94.741,22.2614 -180.468,67.8945 -250.766,130.484 38.6079,15.5315 78.0001,29.0929 118.082,40.3536l12.626 3.54685 6.47363 -11.4047c32.6965,-57.5953 71.2666,-111.885 113.584,-162.979zm-287.303 166.024c-91.6489,97.3146 -149.822,226.51 -156.129,369.19l223.503 0 0.561024 -16.1752c3.43937,-99.2257 27.9567,-194.317 69.1217,-284.475l8.00316 -17.5276 -18.4701 -5.48977c-43.017,-12.789 -85.2485,-28.0902 -126.589,-45.5233zm-156.328 416.107c4.76575,132.854 54.4937,254.25 134.423,349.428l-6.86103 -14.876c47.6339,-21.4252 96.5091,-40.0843 146.46,-55.376l17.5299 -5.36575 -6.91772 -16.9772c-31.4717,-77.2359 -52.3583,-158.074 -58.7233,-241.355l-1.1811 -15.4784 -224.73 0zm155.586 373.263c4.21418,4.49174 8.49449,8.92324 12.848,13.2768 76.9831,76.9843 175.651,132.285 286.053,155.978 -51.9284,-66.7193 -98.8253,-137.763 -136.763,-213.064l-6.28819 -12.4795 -13.4055 3.94488c-48.5752,14.2925 -96.1111,31.9406 -142.443,52.3441zm367.184 179.66c9.85513,0.904725 19.7811,1.55551 29.7733,1.95945l0 -275.319 -17.537 0.820867c-52.4174,2.45669 -104.526,9.27993 -155.871,20.0717l-21.7158 4.5626 10.3347 19.6358c42.8528,81.4217 96.3922,157.486 155.016,228.268zm76.6914 1.95945c12.0874,-0.485433 24.0803,-1.33819 35.9658,-2.55473 58.4339,-70.6064 111.763,-146.453 154.474,-227.6l10.3004 -19.5721 -21.6307 -4.61693c-53.23,-11.3575 -107.299,-18.2764 -161.687,-20.4473l-17.4225 -0.69567 0 275.486zm104.94 -13.8874c107.619,-24.4819 203.79,-79.0737 279.169,-154.455 4.44331,-4.44331 8.80867,-8.96457 13.1043,-13.5496 -44.537,-20.1343 -90.2989,-37.5059 -137.11,-51.6142l-13.4634 -4.05709 -6.33071 12.5551c-37.6099,74.5737 -84.0072,144.966 -135.37,211.121zm313.427 -191.862c79.7871,-95.1296 129.413,-216.416 134.176,-349.133l-219.031 0 -1.1811 15.4784c-6.38032,83.5087 -27.365,164.558 -58.976,241.984l-6.88583 16.8662 17.3823 5.45197c48.3036,15.1512 95.5146,33.6036 141.462,54.8256l-6.94607 14.5264zm133.976 -396.05c-6.30119,-142.54 -64.3666,-271.624 -155.862,-368.907 -39.652,17.1059 -80.1981,32.113 -121.528,44.6929l-18.3284 5.57717 7.97008 17.4213c41.3233,90.3201 65.9375,185.601 69.3851,285.04l0.559843 16.1752 217.804 0zm-820.028 295.644c-30.9815,-73.5969 -52.0146,-150.851 -58.8591,-230.538l-1.56142 -18.189 281.188 0 0 232.492 -16.0299 0.692127c-62.5134,2.70118 -124.571,11.3658 -185.545,25.3701l-13.7256 3.15473 -5.46615 -12.9815zm29.0811 -599.156c57.7902,12.7075 116.53,20.5973 175.655,23.152l16.0311 0.693308 0 279.666 -282.242 0 0.696851 -17.4236c3.86811,-96.952 29.4095,-189.599 71.1438,-276.947l5.73189 -11.9941 12.9839 2.85355zm445.705 609.193c-62.7154,-14.6622 -126.601,-23.4248 -190.97,-25.8213l-16.1303 -0.6 0 -232.343 286.889 0 -1.56142 18.189c-6.85276,79.7694 -27.9449,157.104 -58.9737,230.765l-5.48741 13.0288 -13.7658 -3.21851zm8.87953 -600.247c41.7945,87.3993 67.3902,180.115 71.2654,277.142l0.696851 17.4236 -287.942 0 0 -279.519 16.1303 -0.598819c60.9745,-2.27008 121.539,-10.2614 181.08,-23.5725l13.0158 -2.90906 5.75434 12.0331z"/>
 </g>
 <rect class="fil1" width="2048" height="2048"/>
</svg>
