<?xml version="1.0" encoding="UTF-8"?>
<svg xmlns="http://www.w3.org/2000/svg" xmlns:xlink="http://www.w3.org/1999/xlink" width="20px" height="20px" viewBox="0 0 20 20" version="1.1">
<g id="surface1">
<path style=" stroke:none;fill-rule:nonzero;fill:rgb(0%,0%,0%);fill-opacity:1;" d="M 17.378906 13.582031 C 17.207031 13.445312 16.957031 13.472656 16.820312 13.644531 C 16.636719 13.871094 16.441406 14.09375 16.234375 14.300781 C 16.082031 14.460938 16.082031 14.710938 16.238281 14.867188 C 16.316406 14.941406 16.417969 14.980469 16.519531 14.980469 C 16.621094 14.980469 16.726562 14.941406 16.804688 14.859375 C 17.027344 14.632812 17.242188 14.390625 17.441406 14.140625 C 17.578125 13.96875 17.550781 13.71875 17.378906 13.582031 Z M 17.378906 13.582031 "/>
<path style=" stroke:none;fill-rule:nonzero;fill:rgb(0%,0%,0%);fill-opacity:1;" d="M 15.816406 15.238281 C 15.683594 15.0625 15.433594 15.027344 15.257812 15.160156 C 13.75 16.304688 11.925781 16.964844 9.976562 17.074219 C 9.757812 17.085938 9.589844 17.277344 9.601562 17.496094 C 9.613281 17.707031 9.789062 17.871094 10 17.871094 C 10.007812 17.871094 10.015625 17.871094 10.023438 17.871094 C 12.128906 17.75 14.105469 17.035156 15.738281 15.796875 C 15.914062 15.664062 15.949219 15.414062 15.816406 15.238281 Z M 15.816406 15.238281 "/>
<path style=" stroke:none;fill-rule:nonzero;fill:rgb(0%,0%,0%);fill-opacity:1;" d="M 19.71875 7.808594 C 19.488281 6.945312 19.128906 6.117188 18.644531 5.347656 C 17.953125 4.253906 17.042969 3.320312 15.941406 2.566406 C 14.210938 1.382812 12.15625 0.757812 10 0.757812 C 9.398438 0.757812 8.789062 0.808594 8.199219 0.90625 C 6.523438 1.1875 4.941406 1.871094 3.621094 2.878906 C 1.6875 4.363281 0.433594 6.445312 0.09375 8.738281 C 0.03125 9.15625 0 9.582031 0 10 C 0 11.644531 0.472656 13.261719 1.371094 14.671875 C 2.238281 16.039062 3.476562 17.179688 4.953125 17.980469 C 5.792969 18.433594 6.695312 18.773438 7.636719 18.984375 C 8.410156 19.15625 9.203125 19.242188 10 19.242188 C 11.933594 19.242188 13.808594 18.730469 15.425781 17.765625 C 17.003906 16.820312 18.261719 15.492188 19.058594 13.921875 C 19.683594 12.6875 20 11.367188 20 10 C 20 9.261719 19.90625 8.523438 19.71875 7.808594 Z M 16.101562 3.675781 C 16.597656 4.082031 17.046875 4.53125 17.4375 5.023438 L 16.648438 4.84375 C 16.398438 4.785156 16.136719 4.847656 15.9375 5.011719 C 15.738281 5.175781 15.628906 5.421875 15.636719 5.679688 C 15.636719 5.691406 15.632812 5.699219 15.625 5.707031 L 15.046875 6.085938 C 15.035156 6.089844 15.023438 6.089844 15.011719 6.085938 L 14.199219 5.621094 C 14.125 5.578125 14.089844 5.496094 14.105469 5.414062 L 14.289062 4.628906 C 14.308594 4.546875 14.382812 4.484375 14.46875 4.484375 L 15.160156 4.464844 C 15.625 4.453125 16.007812 4.113281 16.101562 3.675781 Z M 4.949219 16.175781 L 4.832031 16.988281 C 2.328125 15.425781 0.796875 12.792969 0.796875 10 C 0.796875 9.753906 0.808594 9.503906 0.832031 9.253906 L 1.367188 9.339844 C 1.5 9.363281 1.636719 9.375 1.773438 9.375 L 2.042969 9.375 C 2.417969 9.375 2.789062 9.496094 3.089844 9.71875 L 3.5 10.023438 C 3.535156 10.046875 3.558594 10.089844 3.5625 10.132812 L 3.617188 10.644531 C 3.625 10.726562 3.570312 10.804688 3.488281 10.816406 C 3.019531 10.890625 2.675781 11.300781 2.683594 11.773438 L 2.714844 13.578125 C 2.714844 13.785156 2.785156 13.980469 2.910156 14.144531 L 3.558594 14.992188 C 3.863281 15.394531 4.277344 15.695312 4.757812 15.859375 C 4.886719 15.90625 4.96875 16.039062 4.949219 16.175781 Z M 7.515625 18.132812 C 6.84375 17.960938 6.191406 17.71875 5.578125 17.410156 L 5.738281 16.289062 C 5.8125 15.773438 5.507812 15.277344 5.015625 15.105469 C 4.6875 14.992188 4.402344 14.785156 4.191406 14.511719 L 3.542969 13.660156 C 3.519531 13.632812 3.511719 13.601562 3.511719 13.566406 L 3.480469 11.761719 C 3.480469 11.683594 3.535156 11.617188 3.613281 11.601562 C 4.113281 11.523438 4.464844 11.0625 4.410156 10.558594 L 4.355469 10.046875 C 4.324219 9.78125 4.1875 9.539062 3.972656 9.382812 L 3.566406 9.078125 C 3.128906 8.753906 2.585938 8.578125 2.042969 8.578125 L 1.773438 8.578125 C 1.679688 8.578125 1.585938 8.570312 1.492188 8.554688 L 0.949219 8.464844 C 1.335938 6.53125 2.445312 4.785156 4.105469 3.511719 C 5.277344 2.617188 6.675781 2 8.164062 1.722656 C 8.390625 1.910156 8.5625 2.152344 8.671875 2.425781 L 8.695312 2.484375 C 8.75 2.625 8.789062 2.777344 8.808594 2.929688 L 8.828125 3.101562 C 8.863281 3.410156 8.816406 3.726562 8.691406 4.011719 L 8.472656 4.503906 C 8.332031 4.828125 8.097656 5.097656 7.800781 5.285156 L 7.53125 5.457031 C 7.257812 5.628906 7.097656 5.933594 7.113281 6.257812 L 7.148438 6.988281 C 7.152344 7.023438 7.132812 7.046875 7.121094 7.0625 C 7.105469 7.078125 7.078125 7.09375 7.042969 7.089844 C 7.007812 7.085938 6.980469 7.066406 6.964844 7.039062 L 6.632812 6.421875 C 6.519531 6.210938 6.320312 6.050781 6.085938 5.984375 L 4.914062 5.65625 C 4.605469 5.570312 4.277344 5.597656 3.984375 5.730469 L 3.707031 5.855469 C 3.117188 6.125 2.796875 6.773438 2.941406 7.402344 C 3 7.648438 3.125 7.878906 3.308594 8.058594 L 4.066406 8.820312 C 4.109375 8.863281 4.152344 8.90625 4.191406 8.953125 L 4.710938 9.597656 C 4.941406 9.882812 5.285156 10.046875 5.648438 10.046875 C 5.652344 10.046875 5.652344 10.046875 5.652344 10.046875 L 7.074219 10.042969 C 7.078125 10.042969 7.078125 10.042969 7.078125 10.042969 C 7.222656 10.042969 7.359375 10.117188 7.433594 10.246094 C 7.601562 10.539062 7.890625 10.746094 8.222656 10.816406 L 8.753906 10.929688 C 8.871094 10.957031 8.972656 11.03125 9.03125 11.136719 L 9.285156 11.609375 C 9.390625 11.796875 9.546875 11.949219 9.738281 12.046875 L 10.949219 12.660156 C 11.046875 12.710938 11.105469 12.820312 11.089844 12.929688 C 11.082031 12.996094 11.050781 13.054688 11.003906 13.097656 L 10.542969 13.503906 C 10.414062 13.617188 10.3125 13.761719 10.253906 13.925781 L 10.152344 14.191406 C 10.121094 14.273438 10.058594 14.339844 9.976562 14.371094 L 9.488281 14.574219 C 9.074219 14.75 8.804688 15.152344 8.804688 15.601562 C 8.804688 15.652344 8.789062 15.703125 8.765625 15.75 Z M 10 18.445312 C 9.4375 18.445312 8.878906 18.398438 8.324219 18.304688 L 9.472656 16.117188 C 9.554688 15.960938 9.601562 15.78125 9.601562 15.601562 C 9.601562 15.476562 9.675781 15.359375 9.792969 15.3125 L 10.285156 15.109375 C 10.566406 14.992188 10.792969 14.757812 10.898438 14.472656 L 11 14.207031 C 11.015625 14.164062 11.039062 14.128906 11.070312 14.097656 L 11.53125 13.691406 C 11.726562 13.523438 11.847656 13.285156 11.882812 13.03125 C 11.9375 12.585938 11.707031 12.152344 11.308594 11.949219 L 10.097656 11.335938 C 10.050781 11.3125 10.011719 11.273438 9.984375 11.226562 L 9.730469 10.753906 C 9.558594 10.445312 9.265625 10.226562 8.921875 10.152344 L 8.390625 10.039062 C 8.277344 10.015625 8.179688 9.941406 8.121094 9.84375 C 7.90625 9.472656 7.503906 9.246094 7.078125 9.246094 C 7.074219 9.246094 7.074219 9.246094 7.074219 9.246094 L 5.652344 9.25 C 5.652344 9.25 5.652344 9.25 5.648438 9.25 C 5.527344 9.25 5.410156 9.191406 5.332031 9.097656 L 4.808594 8.453125 C 4.753906 8.382812 4.695312 8.316406 4.632812 8.253906 L 3.871094 7.492188 C 3.796875 7.417969 3.742188 7.324219 3.71875 7.222656 C 3.660156 6.960938 3.792969 6.691406 4.035156 6.582031 L 4.316406 6.453125 C 4.433594 6.398438 4.570312 6.390625 4.699219 6.425781 L 5.871094 6.753906 C 5.898438 6.757812 5.917969 6.777344 5.929688 6.800781 L 6.261719 7.417969 C 6.40625 7.679688 6.667969 7.855469 6.964844 7.882812 C 7.226562 7.90625 7.480469 7.820312 7.671875 7.640625 C 7.859375 7.460938 7.957031 7.207031 7.945312 6.945312 L 7.910156 6.21875 C 7.90625 6.183594 7.925781 6.148438 7.957031 6.128906 L 8.226562 5.960938 C 8.660156 5.6875 8.996094 5.292969 9.203125 4.824219 L 9.421875 4.332031 C 9.601562 3.917969 9.671875 3.460938 9.617188 3.011719 L 9.597656 2.835938 C 9.574219 2.617188 9.519531 2.398438 9.4375 2.191406 L 9.414062 2.132812 C 9.335938 1.941406 9.238281 1.757812 9.121094 1.59375 C 9.414062 1.566406 9.707031 1.554688 10 1.554688 C 11.925781 1.554688 13.761719 2.089844 15.320312 3.109375 L 15.324219 3.476562 C 15.324219 3.578125 15.242188 3.664062 15.136719 3.667969 L 14.449219 3.6875 C 14 3.699219 13.617188 4.011719 13.515625 4.449219 L 13.332031 5.230469 C 13.234375 5.652344 13.425781 6.097656 13.804688 6.3125 L 14.617188 6.777344 C 14.746094 6.851562 14.886719 6.886719 15.027344 6.886719 C 15.1875 6.886719 15.34375 6.839844 15.480469 6.75 L 16.058594 6.375 C 16.300781 6.214844 16.445312 5.941406 16.433594 5.652344 C 16.433594 5.648438 16.433594 5.636719 16.445312 5.628906 C 16.457031 5.617188 16.46875 5.621094 16.472656 5.621094 L 17.367188 5.824219 C 17.386719 5.832031 17.410156 5.835938 17.433594 5.839844 L 18.066406 5.929688 C 18.339844 6.386719 18.566406 6.863281 18.742188 7.359375 L 18.125 7.210938 C 18.101562 7.203125 18.078125 7.199219 18.050781 7.195312 L 17.378906 7.085938 C 16.644531 6.96875 15.902344 7.21875 15.386719 7.753906 L 15.285156 7.859375 C 14.984375 8.171875 14.78125 8.558594 14.699219 8.984375 L 14.441406 10.285156 C 14.351562 10.738281 14.402344 11.199219 14.585938 11.625 C 14.90625 12.363281 15.601562 12.878906 16.402344 12.96875 L 16.527344 12.984375 C 16.871094 13.023438 17.222656 12.980469 17.546875 12.867188 L 17.972656 12.714844 C 18.046875 12.6875 18.132812 12.710938 18.183594 12.773438 L 18.238281 12.84375 C 18.265625 12.875 18.28125 12.914062 18.28125 12.957031 L 18.300781 13.648438 C 16.777344 16.566406 13.527344 18.445312 10 18.445312 Z M 18.847656 12.328125 L 18.800781 12.273438 C 18.613281 12.035156 18.328125 11.90625 18.035156 11.90625 C 17.925781 11.90625 17.8125 11.925781 17.703125 11.964844 L 17.277344 12.117188 C 17.066406 12.191406 16.839844 12.21875 16.617188 12.191406 L 16.492188 12.179688 C 15.976562 12.117188 15.523438 11.785156 15.316406 11.304688 C 15.199219 11.03125 15.164062 10.730469 15.222656 10.4375 L 15.480469 9.140625 C 15.535156 8.863281 15.667969 8.613281 15.859375 8.410156 L 15.960938 8.304688 C 16.296875 7.957031 16.777344 7.796875 17.25 7.875 L 17.925781 7.980469 C 17.929688 7.984375 17.933594 7.984375 17.9375 7.984375 L 19.003906 8.242188 C 19.136719 8.820312 19.203125 9.410156 19.203125 10 C 19.203125 10.796875 19.085938 11.578125 18.847656 12.328125 Z M 18.847656 12.328125 "/>
</g>
</svg>
